<svg width="40" height="40" viewBox="0 0 40 40" fill="none" xmlns="http://www.w3.org/2000/svg">
<path d="M20 0.3125C9.1443 0.3125 0.3125 9.1443 0.3125 20C0.3125 30.8557 9.1443 39.6875 20 39.6875C30.8557 39.6875 39.6875 30.8557 39.6875 20C39.6875 9.1443 30.8557 0.3125 20 0.3125ZM20 37.8125C10.1781 37.8125 2.1875 29.8219 2.1875 20C2.1875 10.1781 10.1781 2.1875 20 2.1875C29.8219 2.1875 37.8125 10.1781 37.8125 20C37.8125 29.8219 29.8219 37.8125 20 37.8125ZM24.1542 20L28.5667 15.5875C29.712 14.4422 29.712 12.5786 28.5667 11.4333C28.0119 10.8784 27.2742 10.5729 26.4896 10.5729C25.705 10.5729 24.9673 10.8784 24.4125 11.4333L20 15.8458L15.5875 11.4333C15.0327 10.8784 14.295 10.5729 13.5104 10.5729C12.7258 10.5729 11.9881 10.8784 11.4333 11.4333C10.8784 11.9881 10.5729 12.7258 10.5729 13.5104C10.5729 14.295 10.8784 15.0327 11.4333 15.5875L15.8458 20L11.4333 24.4125C10.8784 24.9673 10.5729 25.705 10.5729 26.4896C10.5729 27.2742 10.8784 28.0119 11.4333 28.5667C12.5786 29.712 14.4421 29.712 15.5875 28.5667L20 24.1543L24.4125 28.5667C24.9852 29.1395 25.7373 29.4258 26.4896 29.4257C27.2417 29.4256 27.9941 29.1393 28.5667 28.5667C29.1216 28.0119 29.4271 27.2742 29.4271 26.4896C29.4271 25.705 29.1216 24.9673 28.5667 24.4125L24.1542 20ZM27.2409 27.2409C26.8267 27.6552 26.1527 27.6553 25.7384 27.2409L20.663 22.1655C20.4799 21.9825 20.24 21.8909 20.0001 21.8909C19.7602 21.8909 19.5202 21.9825 19.3372 22.1655L14.2618 27.2409C13.8475 27.6552 13.1734 27.6552 12.7592 27.2409C12.5585 27.0403 12.448 26.7735 12.448 26.4897C12.448 26.2059 12.5586 25.9391 12.7592 25.7384L17.8346 20.663C18.2007 20.2969 18.2007 19.7033 17.8346 19.3372L12.7592 14.2617C12.5585 14.061 12.448 13.7942 12.448 13.5105C12.448 13.2266 12.5586 12.9598 12.7592 12.7591C12.9598 12.5584 13.2267 12.448 13.5105 12.448C13.7943 12.448 14.0611 12.5585 14.2618 12.7591L19.3372 17.8346C19.513 18.0104 19.7515 18.1092 20.0001 18.1092C20.2487 18.1092 20.4872 18.0105 20.663 17.8346L25.7384 12.7591C25.9391 12.5584 26.2059 12.448 26.4896 12.448C26.7734 12.448 27.0402 12.5585 27.2409 12.7591C27.6552 13.1734 27.6552 13.8475 27.2409 14.2617L22.1655 19.3372C21.7995 19.7034 21.7995 20.297 22.1655 20.663L27.2409 25.7384C27.6552 26.1527 27.6552 26.8266 27.2409 27.2409Z" fill="#FF1102"/>
</svg>
