<svg width="40" height="33" viewBox="0 0 40 33" fill="none" xmlns="http://www.w3.org/2000/svg">
<path d="M21.713 6.93455H21.673C21.5963 6.92957 21.5214 6.90918 21.4528 6.87459C21.3842 6.84001 21.3232 6.79194 21.2736 6.73326C21.224 6.67458 21.1867 6.6065 21.1641 6.53308C21.1414 6.45967 21.1337 6.38243 21.1416 6.306L21.2101 5.31745C18.7473 5.60316 17.3817 4.83747 16.6388 4.10034C16.4315 3.89267 16.2855 3.6318 16.217 3.34648C16.1484 3.06116 16.1599 2.76244 16.2503 2.48325C16.3348 2.19477 16.4975 1.9353 16.7204 1.73359C16.9433 1.53189 17.2176 1.39581 17.5131 1.34042L23.9986 0.134745C24.4746 0.0434478 24.9676 0.126601 25.3873 0.368988C25.807 0.611376 26.1254 0.99679 26.2843 1.45471L27.4842 4.88318C27.5094 4.95409 27.5203 5.02926 27.5164 5.10439C27.5125 5.17953 27.4938 5.25315 27.4614 5.32107C27.4291 5.38899 27.3836 5.44987 27.3277 5.50023C27.2718 5.55059 27.2066 5.58945 27.1357 5.61459C27.0648 5.63973 26.9896 5.65065 26.9145 5.64674C26.8393 5.64283 26.7657 5.62415 26.6978 5.59179C26.6299 5.55942 26.569 5.51399 26.5186 5.4581C26.4683 5.4022 26.4294 5.33694 26.4043 5.26603L25.2043 1.83755C25.1329 1.63643 24.9912 1.46786 24.8054 1.36288C24.6195 1.25789 24.402 1.22354 24.1929 1.26614L17.7474 2.49468C17.6577 2.512 17.5745 2.5537 17.507 2.61518C17.4395 2.67667 17.3902 2.75558 17.3645 2.84324C17.3359 2.92354 17.3309 3.01037 17.3502 3.09342C17.3694 3.17647 17.4121 3.25226 17.4731 3.3118C18.3359 4.18606 19.8045 4.45462 21.7301 4.10034C21.8153 4.0854 21.9027 4.08997 21.9859 4.11373C22.069 4.13748 22.1457 4.1798 22.2101 4.23748C22.2756 4.29475 22.3271 4.36622 22.3608 4.44643C22.3945 4.52664 22.4094 4.61348 22.4044 4.70033L22.2901 6.41456C22.2771 6.55802 22.2105 6.6913 22.1035 6.78771C21.9965 6.88413 21.857 6.93657 21.713 6.93455Z" fill="#FF1102"/>
<path d="M24.8721 10.8317C24.7437 10.8232 24.6219 10.7715 24.5265 10.685C24.4312 10.5986 24.3677 10.4825 24.3466 10.3555C24.3254 10.2286 24.3477 10.0982 24.4099 9.98549C24.4721 9.8728 24.5706 9.78441 24.6893 9.73464L29.3977 8.11183C29.6708 8.01922 29.8965 7.82281 30.0259 7.56509C30.1553 7.30737 30.178 7.00907 30.0891 6.73472L29.8491 5.98617C29.7644 5.71952 29.5816 5.49502 29.3375 5.35815C29.0935 5.22129 28.8066 5.18229 28.5349 5.24905L20.1866 7.28899C20.112 7.31205 20.0335 7.3196 19.9559 7.31116C19.8784 7.30273 19.8033 7.27849 19.7355 7.23995C19.6676 7.20141 19.6084 7.14938 19.5614 7.08707C19.5144 7.02476 19.4807 6.95348 19.4624 6.87764C19.444 6.8018 19.4413 6.723 19.4546 6.6461C19.4678 6.56919 19.4967 6.49582 19.5394 6.4305C19.5821 6.36518 19.6377 6.30929 19.7028 6.26629C19.7679 6.22328 19.8412 6.19407 19.918 6.18045L28.2606 4.12908C28.8146 3.99215 29.4 4.07129 29.8978 4.35043C30.3956 4.62957 30.7684 5.08776 30.9405 5.6319L31.1805 6.37473C31.355 6.9318 31.3051 7.53497 31.0415 8.0558C30.7779 8.57664 30.3214 8.97398 29.7691 9.16322L25.0607 10.786C25.0009 10.8119 24.9371 10.8274 24.8721 10.8317Z" fill="#FF1102"/>
<path d="M25.1405 14.974C25.029 14.9744 24.9198 14.9422 24.8264 14.8812C24.733 14.8203 24.6595 14.7334 24.6148 14.6312C24.5846 14.5622 24.5683 14.4879 24.5668 14.4125C24.5654 14.3372 24.5789 14.2623 24.6065 14.1922C24.6341 14.1221 24.6753 14.0582 24.7277 14.0041C24.7802 13.9499 24.8428 13.9067 24.912 13.8769L29.5347 11.8713C29.789 11.7547 29.9896 11.5458 30.0957 11.2869C30.2017 11.0281 30.2055 10.7385 30.1061 10.477L30.0147 10.2199C29.9062 9.95613 29.703 9.74248 29.445 9.62089C29.187 9.4993 28.8929 9.47857 28.6204 9.56275L25.0263 10.8027C24.895 10.8169 24.7629 10.7852 24.6524 10.7129C24.5419 10.6407 24.4598 10.5324 24.42 10.4065C24.3803 10.2806 24.3854 10.1449 24.4345 10.0223C24.4835 9.89971 24.5737 9.79837 24.6893 9.73464L28.2833 8.49421C28.559 8.39427 28.8518 8.34975 29.1448 8.36318C29.4377 8.37661 29.7252 8.44774 29.9906 8.5725C30.256 8.69725 30.4942 8.87316 30.6915 9.09016C30.8888 9.30716 31.0414 9.56097 31.1404 9.83703L31.2375 10.0885C31.4406 10.6292 31.4282 11.2273 31.2027 11.759C30.9772 12.2908 30.556 12.7156 30.0261 12.9455L25.3977 14.9512C25.3153 14.9803 25.2268 14.9881 25.1405 14.974Z" fill="#FF1102"/>
<path d="M26.6156 18.8769C26.4887 18.8763 26.3656 18.8334 26.2657 18.755C26.1658 18.6767 26.0949 18.5673 26.0641 18.4441C26.0333 18.3209 26.0444 18.191 26.0957 18.0749C26.1469 17.9587 26.2354 17.863 26.3471 17.8027L30.6612 15.517C30.9046 15.3885 31.0907 15.1733 31.1828 14.914C31.2749 14.6547 31.2662 14.3702 31.1584 14.117L30.9927 13.7342C30.8744 13.4625 30.6551 13.2474 30.3812 13.1342C30.1097 13.0261 29.8071 13.0261 29.5356 13.1342L26.2842 14.5285C26.1448 14.5891 25.987 14.5918 25.8456 14.5361C25.7041 14.4804 25.5906 14.3708 25.53 14.2313C25.4693 14.0919 25.4666 13.9341 25.5223 13.7927C25.578 13.6512 25.6877 13.5377 25.8271 13.4771L29.0613 12.0771C29.3339 11.9594 29.6271 11.8967 29.9241 11.8928C30.221 11.8888 30.5158 11.9437 30.7915 12.0542C31.0671 12.1646 31.3182 12.3286 31.5302 12.5365C31.7423 12.7444 31.9111 12.9922 32.0269 13.2656L32.1926 13.6656C32.4126 14.182 32.4308 14.7621 32.2435 15.2912C32.0562 15.8203 31.6771 16.2598 31.1812 16.5227L26.8671 18.8083C26.7897 18.8503 26.7036 18.8737 26.6156 18.8769Z" fill="#FF1102"/>
<path d="M8.09003 32.9448C7.96351 32.9457 7.84027 32.9046 7.73965 32.8279C7.63902 32.7512 7.5667 32.6432 7.53401 32.521C7.50133 32.3988 7.51014 32.2692 7.55906 32.1525C7.60798 32.0358 7.69425 31.9387 7.80432 31.8763L19.8954 24.9108L31.4265 18.8767C31.6853 18.7414 31.8803 18.5095 31.9691 18.2313C32.0579 17.9531 32.0333 17.6512 31.9008 17.391C31.8336 17.2618 31.7415 17.1473 31.6296 17.0541C31.5178 16.9609 31.3885 16.8909 31.2494 16.8481C31.1095 16.8028 30.9618 16.7865 30.8154 16.8003C30.669 16.814 30.527 16.8575 30.398 16.9281L27.3352 18.5624C27.2688 18.6039 27.1945 18.6314 27.1171 18.643C27.0396 18.6547 26.9606 18.6503 26.8849 18.6301C26.8092 18.6099 26.7384 18.5744 26.6771 18.5257C26.6157 18.4771 26.5649 18.4163 26.528 18.3472C26.4911 18.2781 26.4688 18.2021 26.4625 18.1241C26.4562 18.046 26.466 17.9674 26.4913 17.8933C26.5167 17.8191 26.557 17.751 26.6097 17.6931C26.6625 17.6352 26.7266 17.5888 26.7981 17.5567L29.8608 15.9167C30.1232 15.7776 30.4106 15.6917 30.7063 15.6641C31.002 15.6365 31.3003 15.6677 31.584 15.7558C31.8676 15.844 32.131 15.9874 32.3589 16.1778C32.5869 16.3682 32.7749 16.6019 32.9122 16.8653C33.0482 17.1264 33.1314 17.4117 33.1571 17.705C33.1827 17.9983 33.1503 18.2937 33.0617 18.5745C32.973 18.8552 32.8299 19.1157 32.6405 19.3411C32.4512 19.5665 32.2192 19.7524 31.9579 19.8881L20.444 25.9107L8.37002 32.8705C8.28462 32.9189 8.18819 32.9445 8.09003 32.9448Z" fill="#FF1102"/>
<path d="M12.6728 5.55743C12.5876 5.55692 12.5037 5.5374 12.427 5.50028C12.2909 5.43482 12.1863 5.31813 12.1359 5.17572C12.0856 5.0333 12.0937 4.87676 12.1585 4.74031L13.8727 1.15755C14.0562 0.773357 14.3556 0.456419 14.7288 0.251394C15.1019 0.0463686 15.53 -0.0364082 15.9527 0.0147269L21.4039 0.660423C21.479 0.669052 21.5516 0.692377 21.6176 0.729066C21.6836 0.765755 21.7418 0.815089 21.7887 0.874251C21.8357 0.933414 21.8705 1.00125 21.8913 1.07388C21.912 1.1465 21.9183 1.22251 21.9096 1.29755C21.901 1.37259 21.8777 1.44519 21.841 1.51122C21.8043 1.57724 21.755 1.63539 21.6958 1.68235C21.6366 1.72931 21.5688 1.76415 21.4962 1.7849C21.4235 1.80564 21.3475 1.81188 21.2725 1.80325L15.8155 1.16327C15.6307 1.14338 15.4443 1.181 15.2817 1.27099C15.1191 1.36099 14.9882 1.49897 14.907 1.66611L13.1927 5.24886C13.1436 5.34378 13.0688 5.42301 12.9769 5.47756C12.885 5.5321 12.7796 5.55977 12.6728 5.55743Z" fill="#FF1102"/>
<path d="M15.6727 10.7629C15.3941 10.7626 15.1177 10.7142 14.8555 10.62L9.29 8.59149C8.98975 8.48098 8.71443 8.31195 8.48 8.09422C8.24558 7.87648 8.05671 7.61437 7.92436 7.32309C7.79201 7.03181 7.7188 6.71715 7.70898 6.39736C7.69917 6.07756 7.75294 5.75901 7.86718 5.46015L8.01575 5.07159C8.1276 4.77149 8.29923 4.49723 8.52023 4.26542C8.74123 4.03362 9.007 3.8491 9.30142 3.72306C9.59484 3.59299 9.91132 3.52295 10.2322 3.51706C10.5531 3.51117 10.872 3.56956 11.1699 3.68878L16.6669 5.883C17.2541 6.11992 17.7252 6.57728 17.9793 7.15718C18.2335 7.73708 18.2506 8.39344 18.0269 8.98577L17.9355 9.22005C17.7573 9.67499 17.446 10.0656 17.0423 10.3409C16.6386 10.6161 16.1613 10.7632 15.6727 10.7629ZM9.08429 5.46587L8.93572 5.86014C8.87369 6.01637 8.84423 6.18363 8.84915 6.35165C8.85406 6.51967 8.89324 6.68492 8.96429 6.83726C9.03731 6.99356 9.1413 7.13341 9.26997 7.24833C9.39864 7.36325 9.54931 7.45085 9.71284 7.50581L15.267 9.54575C15.5817 9.65781 15.9277 9.64293 16.2317 9.50427C16.5357 9.36562 16.7738 9.11407 16.8955 8.80292L16.9869 8.56864C17.1052 8.25543 17.0961 7.90833 16.9615 7.60176C16.8269 7.29519 16.5776 7.05356 16.2669 6.92868L10.7414 4.74017C10.5857 4.67511 10.4187 4.6416 10.25 4.6416C10.0813 4.6416 9.91422 4.67511 9.75855 4.74017C9.60417 4.80667 9.46485 4.90373 9.34897 5.0255C9.23309 5.14727 9.14305 5.29124 9.08429 5.44873V5.46587Z" fill="#FF1102"/>
<path d="M14.7245 14.3454C14.4841 14.3456 14.2451 14.309 14.0159 14.2368L8.30179 12.4883C7.98416 12.3913 7.68993 12.2298 7.43747 12.014C7.18501 11.7983 6.97972 11.5328 6.83442 11.2341C6.68912 10.9355 6.60692 10.6101 6.59296 10.2783C6.57899 9.94645 6.63356 9.61531 6.75326 9.30551L6.85611 8.99124C7.08652 8.40194 7.53833 7.92615 8.11494 7.66561C8.69155 7.40507 9.34721 7.38044 9.94174 7.59699L15.5587 9.65979C16.0905 9.85535 16.5367 10.2315 16.8193 10.7226C17.1019 11.2136 17.2031 11.7883 17.1051 12.3464C17.0071 12.9044 16.7162 13.4103 16.2831 13.7757C15.8501 14.1411 15.3025 14.3427 14.7359 14.3454H14.7245ZM9.10176 8.59125C8.84496 8.59098 8.59407 8.66831 8.38198 8.81311C8.1699 8.9579 8.0065 9.16339 7.91323 9.40265L7.78752 9.71693C7.72497 9.88048 7.69664 10.0551 7.7043 10.2301C7.71195 10.405 7.75542 10.5765 7.83201 10.734C7.9086 10.8915 8.01669 11.0315 8.14958 11.1456C8.28248 11.2596 8.43736 11.3451 8.60463 11.3969L14.3473 13.1625C14.6679 13.2701 15.018 13.246 15.3207 13.0954C15.6234 12.9449 15.854 12.6802 15.9616 12.3597C16.0692 12.0392 16.045 11.689 15.8945 11.3863C15.7439 11.0836 15.4793 10.8531 15.1587 10.7455L9.53604 8.68839C9.39904 8.62786 9.25149 8.59486 9.10176 8.59125Z" fill="#FF1102"/>
<path d="M13.9527 18.1396H13.7299C11.5001 17.9239 9.34079 17.2405 7.39291 16.134C6.86775 15.8305 6.47268 15.3444 6.28308 14.7683C6.09348 14.1921 6.12262 13.5664 6.36495 13.0103C6.60728 12.4543 7.04582 12.007 7.59692 11.7537C8.14801 11.5004 8.77308 11.4588 9.35286 11.637L14.667 13.2541C14.9841 13.3511 15.2784 13.5109 15.5325 13.724C15.7866 13.9371 15.9952 14.199 16.1461 14.4943C16.2969 14.7896 16.3869 15.1122 16.4106 15.443C16.4343 15.7737 16.3913 16.1059 16.2841 16.4197V16.4825C16.1178 16.968 15.8034 17.3891 15.3851 17.6864C14.9669 17.9837 14.4659 18.1422 13.9527 18.1396ZM8.63859 12.6598C8.37675 12.6664 8.12257 12.7494 7.90733 12.8987C7.69209 13.0479 7.52519 13.2569 7.4272 13.4998C7.30988 13.7945 7.30311 14.1217 7.40813 14.421C7.51315 14.7203 7.72287 14.9715 7.99861 15.1283C9.79284 16.1477 11.7798 16.7821 13.8327 16.9911C14.1249 17.015 14.4166 16.9402 14.6611 16.7785C14.9056 16.6169 15.0888 16.3778 15.1813 16.0997V16.0368C15.2407 15.8674 15.2652 15.6878 15.2534 15.5087C15.2416 15.3295 15.1937 15.1546 15.1125 14.9945C15.0314 14.8344 14.9187 14.6923 14.7813 14.5768C14.6438 14.4614 14.4844 14.3749 14.3127 14.3226L8.99858 12.7055C8.88139 12.6731 8.76016 12.6577 8.63859 12.6598Z" fill="#FF1102"/>
<path d="M11.3868 20.5911C10.1572 20.5858 8.93561 20.3931 7.76406 20.0197C7.21719 19.8478 6.75789 19.4712 6.48211 18.9686C6.20633 18.466 6.13539 17.8763 6.28411 17.3227C6.36215 17.0042 6.50899 16.7066 6.71432 16.4509C6.91966 16.1953 7.17849 15.9877 7.47264 15.8427C7.75891 15.7024 8.07232 15.6261 8.39106 15.6192C8.70981 15.6123 9.02623 15.6749 9.31831 15.8027C10.5348 16.3483 11.8214 16.7214 13.1411 16.9113C13.6002 16.9753 14.0158 17.2173 14.298 17.585C14.5802 17.9528 14.7065 18.4168 14.6496 18.8769C14.6054 19.2449 14.4454 19.5893 14.1928 19.8604C13.9401 20.1316 13.6078 20.3154 13.2439 20.3854C12.6321 20.5086 12.0107 20.5774 11.3868 20.5911ZM8.44405 16.7627C8.28343 16.7624 8.12496 16.7996 7.9812 16.8713C7.83892 16.9434 7.71409 17.0457 7.6154 17.171C7.51672 17.2964 7.44655 17.4417 7.40979 17.5969C7.34486 17.8581 7.37976 18.1341 7.50765 18.3708C7.63554 18.6076 7.84721 18.788 8.1012 18.8769C9.6942 19.3996 11.39 19.529 13.0439 19.254C13.169 19.2269 13.2822 19.1609 13.3674 19.0654C13.4526 18.9699 13.5054 18.85 13.5182 18.7226C13.5378 18.5601 13.4933 18.3963 13.394 18.2661C13.2948 18.136 13.1487 18.0496 12.9868 18.0255C11.5621 17.8242 10.1731 17.4221 8.86118 16.8313C8.72825 16.7802 8.58631 16.7569 8.44405 16.7627Z" fill="#FF1102"/>
<path d="M0.570246 24.0996C0.468994 24.0994 0.369606 24.0724 0.282256 24.0212C0.194906 23.9699 0.122731 23.8965 0.0731174 23.8082C-0.000909172 23.6763 -0.0196222 23.5204 0.0210801 23.3748C0.0617824 23.2291 0.158579 23.1055 0.290254 23.0311L7.65576 18.9398C7.78836 18.864 7.94563 18.844 8.09298 18.8842C8.24033 18.9244 8.36567 19.0214 8.44145 19.154C8.51722 19.2866 8.53722 19.4439 8.49703 19.5913C8.45685 19.7386 8.35977 19.864 8.22717 19.9397L0.850238 24.0196C0.764712 24.0684 0.668657 24.0959 0.570246 24.0996Z" fill="#FF1102"/>
<path d="M39.4263 24.4709C39.3344 24.4695 39.2442 24.446 39.1634 24.4023L30.9808 20.1396C30.9087 20.1085 30.8438 20.0629 30.7901 20.0056C30.7365 19.9483 30.6952 19.8805 30.6689 19.8066C30.6425 19.7326 30.6317 19.654 30.6371 19.5757C30.6425 19.4974 30.664 19.421 30.7002 19.3514C30.7364 19.2817 30.7865 19.2203 30.8475 19.1709C30.9085 19.1215 30.9791 19.0852 31.0547 19.0642C31.1304 19.0433 31.2095 19.0381 31.2873 19.0492C31.365 19.0602 31.4396 19.0871 31.5065 19.1282L39.6891 23.3909C39.8034 23.4495 39.8947 23.5448 39.9481 23.6616C40.0016 23.7784 40.0142 23.9098 39.9838 24.0346C39.9534 24.1594 39.8819 24.2703 39.7807 24.3495C39.6796 24.4286 39.5547 24.4714 39.4263 24.4709Z" fill="#FF1102"/>
<path d="M33.2545 32.8422C33.1627 32.8408 33.0725 32.8173 32.9917 32.7736L19.9178 25.9167C19.7881 25.8463 19.6908 25.7284 19.646 25.5878C19.6013 25.4473 19.6127 25.2948 19.6778 25.1624C19.7483 25.0283 19.8692 24.9277 20.0138 24.8827C20.1585 24.8377 20.3151 24.852 20.4492 24.9224L33.5231 31.7794C33.6379 31.8382 33.7294 31.934 33.7828 32.0514C33.8362 32.1688 33.8483 32.3008 33.8172 32.4259C33.7861 32.551 33.7135 32.662 33.6114 32.7407C33.5092 32.8194 33.3835 32.8612 33.2545 32.8594V32.8422Z" fill="#FF1102"/>
</svg>
