<svg width="30" height="30" viewBox="0 0 30 30" fill="none" xmlns="http://www.w3.org/2000/svg">
<g clip-path="url(#clip0_2025_5)">
<path d="M30 15C30 23.2843 23.2843 30 15 30C6.71573 30 0 23.2843 0 15C0 6.71573 6.71573 0 15 0C23.2843 0 30 6.71573 30 15Z" fill="#FF1102"/>
<path d="M18.2864 21.1654L18.0488 22.1364C17.3362 22.4177 16.767 22.6317 16.3432 22.7789C15.9188 22.9266 15.4258 23 14.864 23C14.0014 23 13.3304 22.7887 12.8518 22.3689C12.3732 21.9475 12.1339 21.4135 12.1339 20.7656C12.1339 20.5148 12.1512 20.2569 12.1874 19.9941C12.2238 19.7309 12.2817 19.4346 12.3609 19.1034L13.2514 15.9513C13.3307 15.6495 13.398 15.3635 13.4519 15.0931C13.5066 14.8243 13.533 14.577 13.533 14.3544C13.533 13.9519 13.4497 13.6703 13.2837 13.512C13.1178 13.3542 12.8012 13.274 12.3312 13.274C12.101 13.274 11.8643 13.3109 11.6232 13.3822C11.3809 13.4538 11.1738 13.523 11 13.5873L11.2381 12.6155C11.8215 12.378 12.3792 12.1746 12.9126 12.0058C13.446 11.8365 13.95 11.7518 14.4268 11.7518C15.2835 11.7518 15.9446 11.9588 16.4088 12.373C16.8731 12.7874 17.1051 13.3246 17.1051 13.9866C17.1051 14.1236 17.0899 14.3649 17.0571 14.7099C17.0251 15.0556 16.9655 15.3723 16.8787 15.6605L15.992 18.7999C15.9193 19.052 15.8539 19.3403 15.7971 19.6647C15.7384 19.9869 15.7104 20.2331 15.7104 20.3983C15.7104 20.8151 15.8033 21.0998 15.9897 21.251C16.1774 21.4023 16.5007 21.4776 16.9599 21.4776C17.1755 21.4776 17.4208 21.4394 17.6934 21.3643C17.9652 21.2891 18.1634 21.2232 18.2864 21.1654ZM18.5113 7.98527C18.5113 8.53224 18.3051 8.99938 17.8908 9.38348C17.4776 9.76896 16.9797 9.96185 16.3972 9.96185C15.8129 9.96185 15.3138 9.76896 14.8959 9.38348C14.4787 8.99923 14.2697 8.53224 14.2697 7.98527C14.2697 7.43936 14.4787 6.97145 14.8959 6.58248C15.313 6.19411 15.8131 6 16.3972 6C16.9796 6 17.4776 6.19457 17.8908 6.58248C18.3054 6.97145 18.5113 7.43951 18.5113 7.98527Z" fill="white"/>
</g>
<defs>
<clipPath id="clip0_2025_5">
<rect width="30" height="30" fill="white"/>
</clipPath>
</defs>
</svg>
