<svg width="40" height="40" viewBox="0 0 40 40" fill="none" xmlns="http://www.w3.org/2000/svg">
<path d="M27.5133 12.5327C26.7423 12.5199 26.013 12.8037 25.4594 13.3362L17.8423 20.6291L14.4964 17.5564C13.9292 17.0345 13.193 16.7646 12.4227 16.7966C11.6526 16.8286 10.941 17.1586 10.4191 17.7258C9.89719 18.293 9.62742 19.0295 9.65938 19.7995C9.69141 20.5697 10.0214 21.2812 10.5886 21.8031C10.5888 21.8033 10.5891 21.8035 10.5892 21.8037L15.9285 26.7073C16.4869 27.221 17.1861 27.4759 17.8835 27.4759C18.6291 27.4759 19.3729 27.1845 19.9402 26.6067L29.4568 17.4951C30.012 16.961 30.326 16.2427 30.3409 15.4723C30.3559 14.7021 30.0699 13.9721 29.5359 13.4169C29.0019 12.8616 28.2835 12.5476 27.5133 12.5327ZM28.1586 16.1423L18.6322 25.2632C18.6238 25.2713 18.6155 25.2795 18.6074 25.2878C18.2299 25.6773 17.5977 25.695 17.1976 25.3268L11.8582 20.4232C11.6596 20.2405 11.5441 19.9913 11.5328 19.7216C11.5216 19.452 11.6161 19.194 11.7988 18.9954C11.9816 18.7967 12.2308 18.6812 12.5005 18.6699C12.7698 18.6589 13.0281 18.7532 13.2275 18.9366L17.2216 22.6047C17.5857 22.939 18.147 22.9333 18.5041 22.5913L26.7577 14.689C26.9519 14.5021 27.2067 14.4027 27.4769 14.4073C27.7464 14.4125 27.9977 14.5224 28.1847 14.7166C28.3716 14.9109 28.4716 15.1663 28.4664 15.4359C28.4612 15.7055 28.3512 15.9569 28.1586 16.1423ZM20 0.3125C9.1443 0.3125 0.3125 9.1443 0.3125 20C0.3125 30.8557 9.1443 39.6875 20 39.6875C30.8557 39.6875 39.6875 30.8557 39.6875 20C39.6875 9.1443 30.8557 0.3125 20 0.3125ZM20 37.8125C10.1781 37.8125 2.1875 29.8219 2.1875 20C2.1875 10.1781 10.1781 2.1875 20 2.1875C29.8219 2.1875 37.8125 10.1781 37.8125 20C37.8125 29.8219 29.8219 37.8125 20 37.8125Z" fill="#BBA153"/>
</svg>
