<svg width="37" height="33" viewBox="0 0 37 33" fill="none" xmlns="http://www.w3.org/2000/svg">
<path fill-rule="evenodd" clip-rule="evenodd" d="M20.1371 11.8532C20.729 11.3103 21.1008 10.5311 21.1008 9.66661C21.1008 8.03027 19.7695 6.69898 18.1332 6.69898C16.4968 6.69898 15.1656 8.03027 15.1656 9.66661C15.1656 10.5311 15.5373 11.3102 16.1292 11.8531C14.3737 12.5678 13.0807 14.1965 12.8676 16.1884C12.8498 16.3539 12.9033 16.519 13.0144 16.6428C13.1256 16.7665 13.2842 16.8371 13.4505 16.8371H22.8157C22.9821 16.8371 23.1406 16.7665 23.2518 16.6427C23.363 16.519 23.4164 16.3539 23.3987 16.1884C23.1855 14.1966 21.8926 12.5679 20.1371 11.8532ZM16.3383 9.66661C16.3383 8.67686 17.1435 7.87166 18.1332 7.87166C19.1229 7.87166 19.9281 8.67686 19.9281 9.66661C19.9281 10.6561 19.1233 11.4611 18.1339 11.4615C18.1337 11.4615 18.1334 11.4615 18.1332 11.4615C18.1329 11.4615 18.1326 11.4615 18.1324 11.4615C17.143 11.4611 16.3383 10.6561 16.3383 9.66661ZM14.1554 15.6645C14.6357 13.8984 16.2441 12.6346 18.1323 12.6342H18.1331C18.1331 12.6342 18.1336 12.6342 18.1338 12.6342C20.022 12.6346 21.6303 13.8984 22.1107 15.6645L14.1554 15.6645ZM5.94366 14.8025C5.61985 14.8025 5.35731 14.5399 5.35731 14.2161V14.1741C4.7462 13.9989 4.28386 13.5531 4.13361 12.9506C4.05526 12.6364 4.24648 12.3181 4.56069 12.2398C4.87512 12.1614 5.19314 12.3526 5.27149 12.6669C5.35072 12.9844 5.70362 13.0895 5.98016 13.0828C6.22305 13.077 6.46777 12.9937 6.56203 12.8848C6.5846 12.8587 6.60578 12.8263 6.59582 12.7443C6.58512 12.6559 6.55998 12.449 5.85211 12.3327C4.50492 12.1115 4.26752 11.3317 4.2459 10.8866C4.21204 10.1886 4.65275 9.59837 5.35731 9.37344V9.32C5.35731 8.9962 5.61985 8.73366 5.94366 8.73366C6.26746 8.73366 6.53 8.9962 6.53 9.32V9.36545C7.0141 9.51929 7.41538 9.87095 7.62324 10.3659C7.74857 10.6645 7.60821 11.0082 7.30962 11.1335C7.01102 11.2589 6.66735 11.1184 6.54202 10.8199C6.38466 10.4451 5.98917 10.4252 5.78014 10.4726C5.69189 10.4926 5.40503 10.5775 5.41727 10.8297C5.42511 10.9924 5.63539 11.1088 6.04216 11.1756C7.0879 11.3473 7.66589 11.8276 7.76 12.603C7.80801 12.9985 7.70049 13.3612 7.44895 13.6519C7.23083 13.904 6.90511 14.0898 6.53 14.1847V14.2162C6.53 14.54 6.26754 14.8025 5.94366 14.8025ZM27.7898 13.7302H33.6086C34.4429 13.7302 35.1621 13.1637 35.3576 12.3526L36.3374 8.28723C36.3794 8.11258 36.3391 7.92824 36.2279 7.78701C36.1167 7.64585 35.947 7.56347 35.7673 7.56347H31.0787C29.9931 5.38483 28.3478 3.53609 26.2993 2.20194C24.0874 0.761441 21.517 0 18.8661 0C16.2326 0 13.6766 0.752132 11.4742 2.17504C9.46362 3.47409 7.83535 5.26903 6.74174 7.3861C6.48258 7.33904 6.21616 7.3131 5.94366 7.3131C3.48717 7.3131 1.48862 9.31157 1.48862 11.7681C1.48862 14.0632 3.23321 15.9579 5.46579 16.1972C5.68713 17.3645 6.05902 18.4914 6.57544 19.5607L5.27075 19.912L5.01042 18.9058C4.79911 18.0893 3.96306 17.5968 3.14636 17.8081L1.14678 18.3256C0.752244 18.4277 0.420593 18.6781 0.212881 19.0309C0.00516853 19.3836 -0.0529527 19.7951 0.0491444 20.1896L2.73702 30.5772C2.91519 31.2658 3.53767 31.7238 4.21812 31.7238C4.34462 31.7238 4.47311 31.708 4.60108 31.6749L6.60065 31.1573C7.41721 30.946 7.90959 30.1098 7.69829 29.2934L7.46192 28.3798L8.64956 28.0616L16.0002 32.3055C16.8013 32.7681 17.6316 33 18.4817 33C18.9562 33 19.437 32.9277 19.9219 32.783L33.0054 28.8769C34.2069 28.5183 34.963 27.0063 34.5918 25.7047C34.4117 25.0731 33.5073 23.0983 29.4342 24.2064L26.3433 25.0473C27.1123 24.5432 27.8334 23.9606 28.4923 23.3043C30.6338 21.1713 32.0069 18.3816 32.393 15.4023H32.5973C32.4686 15.6278 32.394 15.8881 32.394 16.1658C32.394 17.0185 33.0877 17.7122 33.9404 17.7122C34.7932 17.7122 35.4869 17.0185 35.4869 16.1658C35.4869 15.8559 35.3944 15.5676 35.2367 15.3253C35.4138 15.2244 35.5334 15.0343 35.5334 14.8159C35.5334 14.4921 35.2709 14.2296 34.9471 14.2296H27.7898C27.6545 14.2296 27.5402 14.1153 27.5402 13.98C27.5402 13.8447 27.6545 13.7302 27.7898 13.7302ZM28.6805 16.1656C28.6805 16.3717 28.5128 16.5394 28.3067 16.5394C28.1006 16.5394 27.9329 16.3717 27.9329 16.1656C27.9329 15.9595 28.1006 15.7918 28.3067 15.7918C28.5128 15.7918 28.6805 15.9595 28.6805 16.1656ZM34.2174 12.0779C34.1483 12.3648 33.9036 12.5575 33.6085 12.5575H28.3841L27.4027 8.73623H35.0229L34.2174 12.0779ZM2.66138 11.7681C2.66138 9.95824 4.13383 8.48578 5.94373 8.48578C7.75362 8.48578 9.22608 9.95824 9.22608 11.7681C9.22608 13.578 7.75362 15.0504 5.94373 15.0504C4.13383 15.0504 2.66138 13.578 2.66138 11.7681ZM6.52406 29.857C6.47525 29.9398 6.39815 29.9984 6.3069 30.022L4.30724 30.5395C4.11991 30.5881 3.9207 30.4707 3.87225 30.2834L1.18431 19.8958C1.1607 19.8045 1.17448 19.7086 1.2233 19.6258C1.27204 19.5431 1.34914 19.4844 1.44046 19.4608L3.44004 18.9434C3.4687 18.936 3.49765 18.9324 3.52623 18.9324C3.68477 18.9324 3.83399 19.0408 3.87504 19.1995L6.56291 29.5871C6.58665 29.6784 6.5728 29.7742 6.52406 29.857ZM29.742 25.3378C31.7908 24.7805 33.1822 25.0379 33.4641 26.0262C33.6581 26.7063 33.2573 27.5778 32.67 27.7531L19.5866 31.6592C18.5541 31.9674 17.5447 31.8431 16.5866 31.2899L9.02562 26.9245C8.89098 26.8468 8.73099 26.8258 8.58074 26.866L7.16816 27.2445L5.56451 21.0473L10.8766 19.617C12.0647 19.2971 13.3108 19.0962 14.3742 19.786C14.7175 20.0087 15.1089 20.2815 15.5622 20.5974C16.8621 21.5034 18.4776 22.6294 20.2433 23.4665C20.8207 23.8606 21.0122 24.5715 20.6871 25.1346C20.2595 25.8753 19.567 25.7965 19.0531 25.5938C18.1925 25.1625 17.393 24.6835 16.5472 24.1765C16.1457 23.9358 15.7305 23.687 15.3015 23.4393C15.0209 23.2773 14.6624 23.3735 14.5005 23.6539C14.3386 23.9344 14.4347 24.2929 14.7151 24.4548C15.1358 24.6977 15.5468 24.9441 15.9443 25.1823C16.8167 25.7052 17.6409 26.1992 18.5495 26.6533C18.5527 26.655 18.556 26.656 18.5592 26.6574C18.5632 26.6594 18.5669 26.6616 18.571 26.6635L19.307 26.9948C20.4126 27.4891 21.4857 27.5837 22.5877 27.284L29.742 25.3378ZM21.657 25.7945C21.6722 25.7699 21.6881 25.7463 21.7027 25.721C22.3402 24.6168 21.9662 23.1856 20.8514 22.4626C20.8292 22.4482 20.8061 22.4353 20.7822 22.4241C19.0908 21.6274 17.5061 20.5228 16.2328 19.6353C15.7901 19.3268 15.3721 19.0353 15.0125 18.8021C13.56 17.8599 11.9526 18.1129 10.5717 18.4846L7.72973 19.2499C7.23537 18.2711 6.87521 17.2376 6.65482 16.1656C8.77445 15.8241 10.3988 13.9825 10.3988 11.768C10.3988 10.0032 9.36732 8.47501 7.87566 7.7541C10.034 3.73677 14.2798 1.17261 18.8661 1.17261C23.388 1.17261 27.5644 3.65277 29.7535 7.56339H27.1015L26.7679 6.26442C26.7012 6.00518 26.4676 5.82393 26.1999 5.82393H24.3986C24.0748 5.82393 23.8123 6.08647 23.8123 6.41027C23.8123 6.73408 24.0748 6.99662 24.3986 6.99662H25.7451L27.2059 12.6841C26.7123 12.9075 26.3675 13.4036 26.3675 13.9797C26.3675 14.5091 26.6587 14.971 27.0889 15.2158C26.8838 15.4783 26.7603 15.8075 26.7603 16.1656C26.7603 17.0183 27.454 17.712 28.3068 17.712C29.1595 17.712 29.8533 17.0183 29.8533 16.1656C29.8533 15.8879 29.7787 15.6276 29.65 15.4021H31.2102C30.4851 20.5472 26.651 24.6584 21.657 25.7945ZM33.9404 16.5394C33.7343 16.5394 33.5667 16.3717 33.5667 16.1656C33.5667 15.9595 33.7344 15.7918 33.9404 15.7918C34.1465 15.7918 34.3142 15.9595 34.3142 16.1656C34.3142 16.3717 34.1465 16.5394 33.9404 16.5394ZM3.50901 20.9435C3.46775 21.2956 3.14892 21.5475 2.7969 21.5063C2.44487 21.465 2.19289 21.1462 2.23415 20.7942C2.27542 20.4421 2.59424 20.1902 2.94627 20.2314C3.29829 20.2726 3.5502 20.5915 3.50901 20.9435Z" fill="#FF1102"/>
</svg>
