<svg width="33" height="33" viewBox="0 0 33 33" fill="none" xmlns="http://www.w3.org/2000/svg">
<path fill-rule="evenodd" clip-rule="evenodd" d="M9.51032 13.9493C13.3314 13.9493 16.44 10.8406 16.44 7.01962C16.44 3.19854 13.3313 0.0898851 9.51032 0.0898851C5.68931 0.0898851 2.58059 3.19854 2.58059 7.01962C2.58059 10.8406 5.68931 13.9493 9.51032 13.9493ZM9.51032 1.1544C12.7444 1.1544 15.3755 3.78549 15.3755 7.01962C15.3755 10.2537 12.7444 12.8848 9.51032 12.8848C6.27625 12.8848 3.6451 10.2537 3.6451 7.01962C3.6451 3.78549 6.27625 1.1544 9.51032 1.1544ZM6.94237 8.86735C6.87232 8.58259 7.04636 8.29491 7.33119 8.22492C7.61595 8.15486 7.90363 8.32897 7.97362 8.61373C8.05333 8.93355 8.24428 9.17693 8.49411 9.34339C8.79803 9.54578 9.18717 9.64239 9.58144 9.63294C9.64857 9.63134 9.72768 9.62509 9.81816 9.61418C10.1512 9.57379 10.4842 9.46761 10.7215 9.28757C10.9117 9.14326 11.0384 8.94147 11.032 8.6766C11.0316 8.65591 11.0287 8.62378 11.0233 8.5796C10.983 8.24707 10.7941 8.02519 10.5427 7.87336C10.2293 7.68414 9.81703 7.58388 9.43095 7.52054C8.95145 7.44183 8.43157 7.29892 8.00835 7.02261C7.5234 6.70599 7.1751 6.2378 7.14117 5.53981C7.10744 4.84501 7.40677 4.28774 7.87882 3.90398C8.18633 3.65395 8.56802 3.48243 8.9746 3.4006L8.97813 3.39986V2.97133C8.97813 2.67739 9.21645 2.43907 9.51039 2.43907C9.80433 2.43907 10.0426 2.67739 10.0426 2.97133V3.39188C10.0964 3.40199 10.1498 3.4137 10.2029 3.42721C10.9072 3.60578 11.5479 4.06885 11.8845 4.87036C11.9981 5.14135 11.8706 5.45318 11.5996 5.56689C11.3286 5.68052 11.0168 5.55305 10.9031 5.28206C10.7109 4.82432 10.3459 4.56005 9.94504 4.45846C9.69262 4.39452 9.42849 4.3906 9.18252 4.44016C8.9428 4.4884 8.72171 4.58633 8.54833 4.72732C8.32658 4.90755 8.18593 5.16763 8.20156 5.48998C8.21607 5.78811 8.37076 5.99203 8.58639 6.13281C8.86376 6.31384 9.24219 6.41378 9.6014 6.47272C10.0981 6.55429 10.64 6.69015 11.0915 6.9628C11.6052 7.27291 11.9926 7.73897 12.0795 8.45492C12.0863 8.51114 12.0906 8.57701 12.0923 8.65172C12.1079 9.30493 11.8098 9.79175 11.3618 10.1317C10.9875 10.4157 10.5104 10.5861 10.0425 10.6569V11.0681C10.0425 11.362 9.80419 11.6004 9.51025 11.6004C9.21631 11.6004 8.978 11.362 8.978 11.0681V10.6468C8.59258 10.5794 8.22445 10.4402 7.90769 10.2292C7.44589 9.92136 7.09201 9.46747 6.94237 8.86735ZM20.6406 13.8882C19.9803 13.8882 19.4431 14.4255 19.4431 15.0858V28.9846C19.4431 29.645 19.9803 30.1822 20.6406 30.1822H23.143C23.8034 30.1822 24.3406 29.645 24.3406 28.9846V15.0858C24.3406 14.4255 23.8034 13.8882 23.143 13.8882H20.6406ZM23.2762 15.0858V28.9846C23.2762 29.0568 23.2152 29.1177 23.1431 29.1177H20.6407C20.5686 29.1177 20.5076 29.0568 20.5076 28.9846V15.0858C20.5076 15.0137 20.5686 14.9527 20.6407 14.9527H23.1431C23.2152 14.9527 23.2762 15.0137 23.2762 15.0858ZM13.5232 17.9113C12.8629 17.9113 12.3256 18.4485 12.3256 19.1089V28.9846C12.3256 29.6449 12.8629 30.1822 13.5232 30.1822H16.0257C16.686 30.1822 17.2233 29.6449 17.2233 28.9846V19.1089C17.2233 18.4485 16.686 17.9113 16.0257 17.9113H13.5232ZM16.1588 19.1089V28.9846C16.1588 29.0567 16.0978 29.1176 16.0257 29.1176H13.5232C13.4511 29.1176 13.3901 29.0567 13.3901 28.9846V19.1089C13.3901 19.0367 13.4511 18.9758 13.5232 18.9758H16.0257C16.0978 18.9758 16.1588 19.0367 16.1588 19.1089ZM30.2603 10.2691H27.7579C27.0975 10.2691 26.5603 10.8064 26.5603 11.4667V28.9846C26.5603 29.6449 27.0975 30.1822 27.7579 30.1822H30.2603C30.9207 30.1822 31.4579 29.6449 31.4579 28.9846V11.4667C31.4579 10.8063 30.9207 10.2691 30.2603 10.2691ZM30.3934 28.9845C30.3934 29.0566 30.3325 29.1176 30.2603 29.1176H27.7579C27.6857 29.1176 27.6249 29.0566 27.6249 28.9845V11.4667C27.6249 11.3946 27.6857 11.3336 27.7579 11.3336H30.2603C30.3325 11.3336 30.3934 11.3946 30.3934 11.4667V28.9845ZM6.40579 21.7641C5.74546 21.7641 5.20828 22.3013 5.20828 22.9617V28.9846C5.20828 29.6449 5.74546 30.1822 6.40579 30.1822H8.9082C9.56854 30.1822 10.1058 29.6449 10.1058 28.9846V22.9616C10.1058 22.3013 9.56854 21.764 8.9082 21.764L6.40579 21.7641ZM9.04133 22.9616V28.9845C9.04133 29.0566 8.98039 29.1176 8.90827 29.1176H6.40586C6.33374 29.1176 6.27286 29.0566 6.27286 28.9845V22.9616C6.27286 22.8895 6.33374 22.8285 6.40586 22.8285H8.90827C8.98039 22.8286 9.04133 22.8895 9.04133 22.9616ZM17.8975 12.4157C21.8353 10.1713 25.7359 7.44822 29.4642 4.13245L27.8873 4.21808C27.5945 4.23298 27.345 4.0077 27.3301 3.7149C27.3152 3.42209 27.5404 3.17259 27.8332 3.15769L30.8987 2.99129C31.1915 2.97639 31.4409 3.20166 31.4559 3.49447C31.4576 3.52914 31.4561 3.5632 31.4514 3.59627L31.0094 6.63426C30.968 6.92474 30.699 7.12674 30.4086 7.08542C30.1181 7.0441 29.9161 6.77505 29.9574 6.48457L30.1863 4.91201C26.3965 8.28453 22.4288 11.0549 18.4215 13.3389C14.1054 15.7989 9.74458 17.6933 5.51173 19.1673C5.23502 19.2638 4.93244 19.1176 4.83603 18.8409C4.73956 18.5642 4.88573 18.2617 5.16244 18.1652C9.33833 16.7109 13.6403 14.8422 17.8975 12.4157ZM33 32.4677C33 32.7617 32.7617 33 32.4677 33H0.532258C0.238319 33 0 32.7617 0 32.4677V0.532258C0 0.238319 0.238319 0 0.532258 0C0.826198 0 1.06452 0.238319 1.06452 0.532258V31.9355H32.4677C32.7617 31.9355 33 32.1738 33 32.4677Z" fill="#FF1102"/>
</svg>
