<svg width="20" height="16" viewBox="0 0 20 16">
<path d="M0.350701 7.64833L4.9488 9.21427L6.74126 14.4815C6.8192 14.8374 7.2868 14.9086 7.59854 14.6951L10.1703 12.7732C10.4041 12.5597 10.7938 12.5597 11.1055 12.7732L15.7036 15.8339C16.0154 16.0475 16.483 15.9051 16.5609 15.5492L19.99 0.601572C20.0679 0.245675 19.6782 -0.110218 19.2886 0.0321407L0.350701 6.723C-0.1169 6.86536 -0.1169 7.50597 0.350701 7.64833ZM6.50747 8.4313L15.5477 3.37757C15.7036 3.30639 15.8595 3.51993 15.7036 3.59111L8.29993 9.92607C8.06613 10.1396 7.83233 10.4243 7.83233 10.7802L7.59854 12.4885C7.59854 12.7021 7.20886 12.7732 7.13093 12.4885L6.19572 9.35663C5.96192 9.00073 6.1178 8.57366 6.50747 8.4313Z"/>
</svg>
